<?xml version="1.0" encoding="utf-8"?>
<!-- Generator: Adobe Illustrator 19.0.0, SVG Export Plug-In . SVG Version: 6.00 Build 0)  -->
<!DOCTYPE svg PUBLIC "-//W3C//DTD SVG 1.1//EN" "http://www.w3.org/Graphics/SVG/1.1/DTD/svg11.dtd">
<svg version="1.1" id="Layer_1" xmlns="http://www.w3.org/2000/svg" xmlns:xlink="http://www.w3.org/1999/xlink" x="0px" y="0px"
	 viewBox="0 0 495.9 204.1" enable-background="new 0 0 495.9 204.1" xml:space="preserve">
<path fill="#231F20" d="M175.4,71.3h0.7c1.4,3.3,2.1,7.6,2.1,12.8c3.3-4.3,6.8-7.5,10.6-9.6c3.8-2.1,7.9-3.2,12.2-3.2
	c4.9,0,9,1.1,12,3.4c3.1,2.3,5.2,5.7,6.5,10.2c3.7-4.5,7.6-7.9,11.5-10.2c3.9-2.3,7.9-3.4,12-3.4c4.7,0,8.6,1.1,11.9,3.2
	c3.2,2.2,5.2,4.6,5.9,7.4c0.7,2.7,1,7.2,1,13.3v18.1c0,7,0.1,11.3,0.4,12.8c0.3,1.5,1,2.7,2.3,3.4c1.3,0.7,3.7,1.1,7.2,1.1v3.1
	h-30.1v-3.1c3.2,0,5.5-0.4,6.8-1.1c1.3-0.7,2.1-1.8,2.4-3.2c0.3-1.4,0.4-5.8,0.4-13V93.3c0-4.1-0.2-7.1-0.7-9.2
	c-0.5-2.1-1.7-3.8-3.7-5.3c-2-1.5-4.5-2.2-7.7-2.2c-3.2,0-6.4,1.1-9.6,3.3c-3.2,2.2-6.5,5.4-9.7,9.8v23.8c0,6.4,0.1,10.5,0.3,12.1
	c0.2,1.6,0.8,2.9,2,3.8c1.2,0.9,3.3,1.4,6.3,1.4v3.1H200v-3.1c3.2,0,5.5-0.3,6.8-1c1.3-0.7,2.1-1.7,2.4-3.2
	c0.3-1.4,0.5-5.8,0.5-13.1V96.7c0-5.3-0.2-9.1-0.6-11.5c-0.4-2.4-1.7-4.4-3.8-6.1c-2.1-1.7-4.8-2.5-7.9-2.5c-3.1,0-6.2,1-9.3,2.9
	c-3.2,2-6.4,4.9-9.7,8.8v25.1c0,6.6,0.1,10.7,0.3,12.4c0.2,1.6,1,2.8,2.3,3.7c1.3,0.8,3.7,1.2,7.1,1.2v3.1h-29.8v-3.1
	c3.2,0,5.5-0.4,6.8-1.1c1.3-0.7,2.1-1.8,2.4-3.2c0.3-1.4,0.4-5.8,0.4-13.1V95.2c0-6.9-0.1-11.1-0.3-12.7c-0.2-1.6-1-2.7-2.3-3.5
	c-1.3-0.8-3.7-1.2-7.1-1.2v-3.1C165.1,74,170.9,72.9,175.4,71.3L175.4,71.3z"/>
<path fill="#FFFFFF" stroke="#FFFFFF" d="M175.4,71.3h0.7c1.4,3.3,2.1,7.6,2.1,12.8c3.3-4.3,6.8-7.5,10.6-9.6
	c3.8-2.1,7.9-3.2,12.2-3.2c4.9,0,9,1.1,12,3.4c3.1,2.3,5.2,5.7,6.5,10.2c3.7-4.5,7.6-7.9,11.5-10.2c3.9-2.3,7.9-3.4,12-3.4
	c4.7,0,8.6,1.1,11.9,3.2c3.2,2.2,5.2,4.6,5.9,7.4c0.7,2.7,1,7.2,1,13.3v18.1c0,7,0.1,11.3,0.4,12.8c0.3,1.5,1,2.7,2.3,3.4
	c1.3,0.7,3.7,1.1,7.2,1.1v3.1h-30.1v-3.1c3.2,0,5.5-0.4,6.8-1.1c1.3-0.7,2.1-1.8,2.4-3.2c0.3-1.4,0.4-5.8,0.4-13V93.3
	c0-4.1-0.2-7.1-0.7-9.2c-0.5-2.1-1.7-3.8-3.7-5.3c-2-1.5-4.5-2.2-7.7-2.2c-3.2,0-6.4,1.1-9.6,3.3c-3.2,2.2-6.5,5.4-9.7,9.8v23.8
	c0,6.4,0.1,10.5,0.3,12.1c0.2,1.6,0.8,2.9,2,3.8c1.2,0.9,3.3,1.4,6.3,1.4v3.1H200v-3.1c3.2,0,5.5-0.3,6.8-1c1.3-0.7,2.1-1.7,2.4-3.2
	c0.3-1.4,0.5-5.8,0.5-13.1V96.7c0-5.3-0.2-9.1-0.6-11.5c-0.4-2.4-1.7-4.4-3.8-6.1c-2.1-1.7-4.8-2.5-7.9-2.5c-3.1,0-6.2,1-9.3,2.9
	c-3.2,2-6.4,4.9-9.7,8.8v25.1c0,6.6,0.1,10.7,0.3,12.4c0.2,1.6,1,2.8,2.3,3.7c1.3,0.8,3.7,1.2,7.1,1.2v3.1h-29.8v-3.1
	c3.2,0,5.5-0.4,6.8-1.1c1.3-0.7,2.1-1.8,2.4-3.2c0.3-1.4,0.4-5.8,0.4-13.1V95.2c0-6.9-0.1-11.1-0.3-12.7c-0.2-1.6-1-2.7-2.3-3.5
	c-1.3-0.8-3.7-1.2-7.1-1.2v-3.1C165.1,74,170.9,72.9,175.4,71.3L175.4,71.3z"/>
<path fill="#231F20" d="M335.4,94.3h-42.1c-0.2,2.9-0.3,5-0.3,6.4c0,10.6,1.7,18.5,5,23.8c3.3,5.3,8.2,7.9,14.8,7.9
	c8.9,0,15.2-4.1,19-12.3h3.6c-1.6,5-4.7,8.9-9.4,11.7c-4.7,2.8-9.8,4.2-15.3,4.2c-5.1,0-9.9-1.3-14.5-3.8
	c-4.6-2.6-8.3-6.2-11.2-10.9c-2.9-4.7-4.3-10.4-4.3-17.1c0-9.5,2.8-17.3,8.4-23.6c5.6-6.3,12.6-9.4,21-9.4c7.9,0,14,2.4,18.4,7.3
	C332.9,83.4,335.2,88.7,335.4,94.3L335.4,94.3z M322.7,91.2c0.1-1.1,0.2-2.1,0.2-3c0-4.3-1.3-7.7-3.8-10.1c-2.5-2.4-5.7-3.6-9.4-3.6
	c-9,0-14.3,5.6-16,16.7H322.7L322.7,91.2z"/>
<path fill="#FFFFFF" stroke="#FFFFFF" d="M335.4,94.3h-42.1c-0.2,2.9-0.3,5-0.3,6.4c0,10.6,1.7,18.5,5,23.8
	c3.3,5.3,8.2,7.9,14.8,7.9c8.9,0,15.2-4.1,19-12.3h3.6c-1.6,5-4.7,8.9-9.4,11.7c-4.7,2.8-9.8,4.2-15.3,4.2c-5.1,0-9.9-1.3-14.5-3.8
	c-4.6-2.6-8.3-6.2-11.2-10.9c-2.9-4.7-4.3-10.4-4.3-17.1c0-9.5,2.8-17.3,8.4-23.6c5.6-6.3,12.6-9.4,21-9.4c7.9,0,14,2.4,18.4,7.3
	C332.9,83.4,335.2,88.7,335.4,94.3L335.4,94.3z M322.7,91.2c0.1-1.1,0.2-2.1,0.2-3c0-4.3-1.3-7.7-3.8-10.1c-2.5-2.4-5.7-3.6-9.4-3.6
	c-9,0-14.3,5.6-16,16.7H322.7L322.7,91.2z"/>
<path fill="#231F20" d="M368.1,86.6c1.7-4.4,4.4-8,8.1-10.9c3.7-2.9,7.4-4.4,11-4.4c3.2,0,5.8,1,7.6,3.1c1.9,2,2.8,4.1,2.8,6.3
	c0,1.4-0.5,2.7-1.4,3.7c-0.9,1-2.1,1.6-3.5,1.6c-2.4,0-4.3-1.8-5.6-5.5c-0.9-2.5-2.2-3.7-4-3.7c-2.1,0-4.7,1.4-7.6,4.3
	c-3,2.9-4.9,5.8-5.7,8.9c-0.8,3.1-1.3,7.3-1.3,12.7v10.7c0,6.4,0.1,10.4,0.3,12.1c0.2,1.7,0.9,2.9,2.1,3.8c1.2,0.9,3.4,1.3,6.6,1.3
	h2.1v3.1h-31.9v-3.1h1.5c2.9,0,5-0.4,6.3-1.2c1.2-0.8,2-2,2.2-3.4c0.2-1.5,0.4-5.7,0.4-12.7v-17c0-6.5-0.1-10.6-0.3-12.2
	c-0.2-1.6-0.9-2.9-2.1-3.8c-1.2-0.9-3.4-1.4-6.6-1.4h-1.5v-3.1c4.6-0.6,10.6-2,18-4.4C367.2,75.2,368,80.3,368.1,86.6L368.1,86.6z"
	/>
<path fill="#FFFFFF" stroke="#FFFFFF" d="M368.1,86.6c1.7-4.4,4.4-8,8.1-10.9c3.7-2.9,7.4-4.4,11-4.4c3.2,0,5.8,1,7.6,3.1
	c1.9,2,2.8,4.1,2.8,6.3c0,1.4-0.5,2.7-1.4,3.7c-0.9,1-2.1,1.6-3.5,1.6c-2.4,0-4.3-1.8-5.6-5.5c-0.9-2.5-2.2-3.7-4-3.7
	c-2.1,0-4.7,1.4-7.6,4.3c-3,2.9-4.9,5.8-5.7,8.9c-0.8,3.1-1.3,7.3-1.3,12.7v10.7c0,6.4,0.1,10.4,0.3,12.1c0.2,1.7,0.9,2.9,2.1,3.8
	c1.2,0.9,3.4,1.3,6.6,1.3h2.1v3.1h-31.9v-3.1h1.5c2.9,0,5-0.4,6.3-1.2c1.2-0.8,2-2,2.2-3.4c0.2-1.5,0.4-5.7,0.4-12.7v-17
	c0-6.5-0.1-10.6-0.3-12.2c-0.2-1.6-0.9-2.9-2.1-3.8c-1.2-0.9-3.4-1.4-6.6-1.4h-1.5v-3.1c4.6-0.6,10.6-2,18-4.4
	C367.2,75.2,368,80.3,368.1,86.6L368.1,86.6z"/>
<path fill="#231F20" d="M452.3,135.6V116h2.6c3.4,11.3,9.4,17,18.1,17c3.8,0,6.6-1.1,8.4-3.4c1.9-2.2,2.8-4.7,2.8-7.4
	c0-3.1-1-5.7-2.9-7.7c-2-2-5.9-4.4-11.7-7.3c-6.1-3-10.4-5.9-13.1-8.8c-2.6-2.8-4-6.3-4-10.5c0-4,1.4-7.7,4.3-11.3
	c2.8-3.6,6.8-5.4,12-5.4c5.3,0,9.6,2,13,6.1c0.7-0.7,1.7-2.5,2.9-5.4h2.6v18.6h-2.6c-1-4.4-2.9-8.2-5.8-11.4
	c-2.9-3.2-6.2-4.8-10.1-4.8c-3,0-5.4,0.9-7.2,2.7c-1.8,1.8-2.8,3.9-2.8,6.4c0,2.7,1,4.9,3,6.9c2,2,5.8,4.2,11.4,6.7
	c8.4,3.8,13.6,7.4,15.4,11c1.9,3.6,2.8,7.1,2.8,10.4c0,5.2-1.7,9.5-5.2,12.7c-3.5,3.3-7.9,4.9-13.2,4.9c-5.6,0-10.6-2.3-14.9-6.8
	c-1.3,1.5-2.4,3.6-3.2,6.3H452.3L452.3,135.6z"/>
<path fill="#FFFFFF" stroke="#FFFFFF" d="M452.3,135.6V116h2.6c3.4,11.3,9.4,17,18.1,17c3.8,0,6.6-1.1,8.4-3.4
	c1.9-2.2,2.8-4.7,2.8-7.4c0-3.1-1-5.7-2.9-7.7c-2-2-5.9-4.4-11.7-7.3c-6.1-3-10.4-5.9-13.1-8.8c-2.6-2.8-4-6.3-4-10.5
	c0-4,1.4-7.7,4.3-11.3c2.8-3.6,6.8-5.4,12-5.4c5.3,0,9.6,2,13,6.1c0.7-0.7,1.7-2.5,2.9-5.4h2.6v18.6h-2.6c-1-4.4-2.9-8.2-5.8-11.4
	c-2.9-3.2-6.2-4.8-10.1-4.8c-3,0-5.4,0.9-7.2,2.7c-1.8,1.8-2.8,3.9-2.8,6.4c0,2.7,1,4.9,3,6.9c2,2,5.8,4.2,11.4,6.7
	c8.4,3.8,13.6,7.4,15.4,11c1.9,3.6,2.8,7.1,2.8,10.4c0,5.2-1.7,9.5-5.2,12.7c-3.5,3.3-7.9,4.9-13.2,4.9c-5.6,0-10.6-2.3-14.9-6.8
	c-1.3,1.5-2.4,3.6-3.2,6.3H452.3L452.3,135.6z"/>
<path fill="#231F20" d="M97.6,87.4H49.3l-3.4,8.1c-4.9,11.7-7.3,19.4-7.3,23c0,3.8,1.3,6.7,3.9,8.7c2.6,2,6,3,10.1,3v4.3H14.2v-4.3
	c5.7-0.9,9.9-2.9,12.7-6c2.8-3.1,6.1-9.6,10-19.6c0.4-0.9,1.9-4.6,4.6-10.9L78.7,5.3h3.7l42.4,101.2l5.8,13.3c1.3,3,3.1,5.4,5.3,7.1
	c2.2,1.7,5.6,2.8,10,3.2v4.3H96v-4.3c6.1,0,10.3-0.4,12.4-1.4c2.2-0.9,3.2-2.7,3.2-5.4c0-1.4-1.4-5.5-4.3-12.3L97.6,87.4L97.6,87.4z
	 M95.7,82.7L73.4,28.8L51.2,82.7H95.7L95.7,82.7z"/>
<path fill="#FFFFFF" stroke="#FFFFFF" d="M97.6,87.4H49.3l-3.4,8.1c-4.9,11.7-7.3,19.4-7.3,23c0,3.8,1.3,6.7,3.9,8.7
	c2.6,2,6,3,10.1,3v4.3H14.2v-4.3c5.7-0.9,9.9-2.9,12.7-6c2.8-3.1,6.1-9.6,10-19.6c0.4-0.9,1.9-4.6,4.6-10.9L78.7,5.3h3.7l42.4,101.2
	l5.8,13.3c1.3,3,3.1,5.4,5.3,7.1c2.2,1.7,5.6,2.8,10,3.2v4.3H96v-4.3c6.1,0,10.3-0.4,12.4-1.4c2.2-0.9,3.2-2.7,3.2-5.4
	c0-1.4-1.4-5.5-4.3-12.3L97.6,87.4L97.6,87.4z M95.7,82.7L73.4,28.8L51.2,82.7H95.7L95.7,82.7z"/>
<path fill="#D31145" d="M52.8,77c-7.2,0.4-32.2,2.3-46,8.9v9.7c14.1-6.7,40.1-8.5,46.5-8.9C53,83.3,52.8,80,52.8,77L52.8,77z"/>
<path fill="#FFFFFF" d="M53.4,88.1c0-0.5-0.1-0.9-0.1-1.4c-6.4,0.4-32.4,2.2-46.5,8.9v9.5c15-7,43.2-8.6,47.3-8.8
	C53.8,93.6,53.6,90.9,53.4,88.1L53.4,88.1z"/>
<path fill="#D31145" d="M54.2,97.8c-0.1-0.5-0.1-1-0.2-1.6C50,96.4,21.8,98,6.8,105c-0.1,0-0.1,0.1-0.2,0.1v11.5
	c0,0,8.1-8.4,48.7-9.4C55,105.2,54.6,101.8,54.2,97.8L54.2,97.8z"/>
<path fill="#D31145" d="M51.5,78.4c7.1-0.2,24.5,0.1,24.5,0.1c18.6,1.3,32.1,0.9,32.1,0.9c31.3-0.6,38-8.3,38-8.3v0
	c0.1,0,0.1-0.1,0.2-0.2v-9.5c0,0-6.8,7.7-38.1,8.3c0,0-13.6,0.4-32.2-0.9c0,0-17-0.3-24.3-0.1C51.4,70.9,51.4,74.4,51.5,78.4
	L51.5,78.4z"/>
<path fill="#FFFFFF" d="M108.1,79.4c0,0-13.6,0.4-32.1-0.9c0,0-17.3-0.3-24.5-0.1c0,0.5,0,1,0.1,1.5c0.1,2.6,0.3,5.3,0.5,8.1
	c7.5-0.2,23.9,0.1,23.9,0.1c18.6,1.3,32.2,0.9,32.2,0.9c29.5-0.6,37.2-7.5,38-8.2v-9.6C146.1,71.1,139.4,78.7,108.1,79.4L108.1,79.4
	z"/>
<path fill="#D31145" d="M146.1,80.7c-0.8,0.8-8.5,7.6-38,8.2c0,0-13.6,0.4-32.2-0.9c0,0-16.4-0.3-23.9-0.1c0,0.5,0.1,1.1,0.1,1.6
	c0.3,3.3,0.6,6.6,0.9,9.5c5.4-0.3,19.2-0.8,32.9,0.4c0,0,39.2,3,60.2-8.1L146.1,80.7C146.2,80.6,146.2,80.6,146.1,80.7L146.1,80.7z"
	/>
<path fill="#231F20" d="M422.6,77c2.1,0,4-0.8,5.4-2.3c1.5-1.5,2.2-3.3,2.2-5.5c0-2.1-0.7-3.9-2.2-5.4c-1.5-1.5-3.3-2.3-5.4-2.3
	c-2.1,0-4,0.8-5.5,2.3c-1.5,1.5-2.3,3.3-2.3,5.4c0,2.1,0.8,4,2.3,5.5C418.6,76.2,420.5,77,422.6,77L422.6,77z M438.9,72.2v-0.5
	l-5.8,4.2l-2.9,2.1c-3.8,2.9-6.1,5.1-6.9,6.8c-0.4,0.9-0.6,1.8-0.7,2.9c-0.1-1-0.3-2-0.7-2.8c-0.8-1.7-3.1-4-6.9-6.8l-2.9-2.1
	l-5.8-4.2v12.7h1.5c3.6,0,5.9,0.3,7,1c1.1,0.6,1.8,1.8,2.1,3.5c0.3,1.7,0.5,5.4,0.5,11.2v15.6c0,6.1-0.2,10-0.5,11.6
	c-0.3,1.7-1.1,2.9-2.2,3.7c-1.2,0.8-3.3,1.2-6.3,1.2h-2.1v2.5h32.7v-2.5h-2.1c-3.2,0-5.4-0.4-6.5-1.3c-1.1-0.9-1.8-2.2-2.1-4
	c-0.3-1.8-0.4-5.5-0.4-11.3v-15.6c0-6.1,0.2-9.9,0.5-11.5c0.4-1.6,1.1-2.7,2.2-3.3c1.1-0.6,3.4-0.9,6.9-0.9h1.5V72.2L438.9,72.2
	L438.9,72.2L438.9,72.2z"/>
<path fill="#FFFFFF" stroke="#FFFFFF" d="M422.6,77c2.1,0,4-0.8,5.4-2.3c1.5-1.5,2.2-3.3,2.2-5.5c0-2.1-0.7-3.9-2.2-5.4
	c-1.5-1.5-3.3-2.3-5.4-2.3c-2.1,0-4,0.8-5.5,2.3c-1.5,1.5-2.3,3.3-2.3,5.4c0,2.1,0.8,4,2.3,5.5C418.6,76.2,420.5,77,422.6,77
	L422.6,77z M438.9,72.2v-0.5l-5.8,4.2l-2.9,2.1c-3.8,2.9-6.1,5.1-6.9,6.8c-0.4,0.9-0.6,1.8-0.7,2.9c-0.1-1-0.3-2-0.7-2.8
	c-0.8-1.7-3.1-4-6.9-6.8l-2.9-2.1l-5.8-4.2v12.7h1.5c3.6,0,5.9,0.3,7,1c1.1,0.6,1.8,1.8,2.1,3.5c0.3,1.7,0.5,5.4,0.5,11.2v15.6
	c0,6.1-0.2,10-0.5,11.6c-0.3,1.7-1.1,2.9-2.2,3.7c-1.2,0.8-3.3,1.2-6.3,1.2h-2.1v2.5h32.7v-2.5h-2.1c-3.2,0-5.4-0.4-6.5-1.3
	c-1.1-0.9-1.8-2.2-2.1-4c-0.3-1.8-0.4-5.5-0.4-11.3v-15.6c0-6.1,0.2-9.9,0.5-11.5c0.4-1.6,1.1-2.7,2.2-3.3c1.1-0.6,3.4-0.9,6.9-0.9
	h1.5V72.2L438.9,72.2L438.9,72.2L438.9,72.2z"/>
<path fill="#231F20" d="M367.3,174.1c3.4,0.7,6,1.9,7.7,3.5c2.4,2.2,3.5,5,3.5,8.2c0,2.5-0.8,4.8-2.3,7.1c-1.6,2.3-3.7,3.9-6.4,4.9
	c-2.7,1-6.9,1.6-12.4,1.6h-23.4v-1.4h1.9c2.1,0,3.5-0.7,4.4-2c0.6-0.8,0.8-2.7,0.8-5.4v-32.1c0-3.1-0.4-5-1.1-5.8
	c-0.9-1.1-2.4-1.6-4.2-1.6h-1.9v-1.4h21.4c4,0,7.2,0.3,9.6,0.9c3.7,0.9,6.4,2.4,8.4,4.7c1.9,2.2,2.9,4.8,2.9,7.7
	c0,2.5-0.8,4.7-2.3,6.7C372.5,171.7,370.3,173.1,367.3,174.1L367.3,174.1z M348.2,172.1c0.9,0.2,1.9,0.3,3.1,0.4
	c1.2,0.1,2.4,0.1,3.8,0.1c3.6,0,6.2-0.4,8-1.1c1.8-0.8,3.2-1.9,4.1-3.5c1-1.6,1.4-3.3,1.4-5.2c0-2.9-1.2-5.3-3.5-7.4
	c-2.4-2-5.8-3.1-10.4-3.1c-2.4,0-4.6,0.3-6.6,0.8V172.1L348.2,172.1z M348.2,195.9c2.8,0.7,5.6,1,8.4,1c4.4,0,7.8-1,10.1-3
	c2.3-2,3.5-4.5,3.5-7.4c0-1.9-0.5-3.8-1.6-5.6c-1.1-1.8-2.8-3.2-5.2-4.2c-2.4-1-5.3-1.5-8.8-1.5c-1.5,0-2.8,0-3.9,0.1
	c-1.1,0.1-1.9,0.1-2.6,0.3V195.9L348.2,195.9z"/>
<path fill="#FFFFFF" stroke="#FFFFFF" d="M367.3,174.1c3.4,0.7,6,1.9,7.7,3.5c2.4,2.2,3.5,5,3.5,8.2c0,2.5-0.8,4.8-2.3,7.1
	c-1.6,2.3-3.7,3.9-6.4,4.9c-2.7,1-6.9,1.6-12.4,1.6h-23.4v-1.4h1.9c2.1,0,3.5-0.7,4.4-2c0.6-0.8,0.8-2.7,0.8-5.4v-32.1
	c0-3.1-0.4-5-1.1-5.8c-0.9-1.1-2.4-1.6-4.2-1.6h-1.9v-1.4h21.4c4,0,7.2,0.3,9.6,0.9c3.7,0.9,6.4,2.4,8.4,4.7
	c1.9,2.2,2.9,4.8,2.9,7.7c0,2.5-0.8,4.7-2.3,6.7C372.5,171.7,370.3,173.1,367.3,174.1L367.3,174.1z M348.2,172.1
	c0.9,0.2,1.9,0.3,3.1,0.4c1.2,0.1,2.4,0.1,3.8,0.1c3.6,0,6.2-0.4,8-1.1c1.8-0.8,3.2-1.9,4.1-3.5c1-1.6,1.4-3.3,1.4-5.2
	c0-2.9-1.2-5.3-3.5-7.4c-2.4-2-5.8-3.1-10.4-3.1c-2.4,0-4.6,0.3-6.6,0.8V172.1L348.2,172.1z M348.2,195.9c2.8,0.7,5.6,1,8.4,1
	c4.4,0,7.8-1,10.1-3c2.3-2,3.5-4.5,3.5-7.4c0-1.9-0.5-3.8-1.6-5.6c-1.1-1.8-2.8-3.2-5.2-4.2c-2.4-1-5.3-1.5-8.8-1.5
	c-1.5,0-2.8,0-3.9,0.1c-1.1,0.1-1.9,0.1-2.6,0.3V195.9L348.2,195.9z"/>
<path fill="#231F20" d="M404.1,194.6c-3.4,2.6-5.6,4.1-6.5,4.6c-1.3,0.6-2.7,0.9-4.2,0.9c-2.3,0-4.2-0.8-5.7-2.4
	c-1.5-1.6-2.3-3.7-2.3-6.2c0-1.6,0.4-3,1.1-4.2c1-1.6,2.7-3.2,5.2-4.7c2.5-1.5,6.6-3.2,12.4-5.3V176c0-3.3-0.5-5.6-1.6-6.9
	c-1.1-1.2-2.6-1.9-4.6-1.9c-1.5,0-2.8,0.4-3.7,1.2c-0.9,0.8-1.4,1.8-1.4,2.8l0.1,2.1c0,1.1-0.3,2-0.9,2.6c-0.6,0.6-1.3,0.9-2.3,0.9
	c-0.9,0-1.7-0.3-2.2-1c-0.6-0.6-0.9-1.5-0.9-2.6c0-2.1,1.1-4.1,3.2-5.8c2.1-1.8,5.2-2.7,9-2.7c3,0,5.4,0.5,7.3,1.5
	c1.4,0.8,2.5,1.9,3.2,3.5c0.4,1,0.7,3.2,0.7,6.4v11.4c0,3.2,0.1,5.1,0.2,5.9c0.1,0.7,0.3,1.2,0.6,1.4c0.3,0.2,0.6,0.4,1,0.4
	c0.4,0,0.7-0.1,1-0.3c0.5-0.3,1.5-1.2,3-2.7v2c-2.7,3.6-5.3,5.5-7.8,5.5c-1.2,0-2.1-0.4-2.8-1.2C404.5,198,404.1,196.6,404.1,194.6
	L404.1,194.6z M404.1,192.3v-12.6c-3.7,1.4-6.1,2.5-7.2,3.1c-1.9,1.1-3.3,2.2-4.2,3.3c-0.8,1.2-1.3,2.4-1.3,3.8
	c0,1.7,0.5,3.2,1.6,4.3c1.1,1.1,2.3,1.7,3.6,1.7C398.6,195.9,401,194.7,404.1,192.3L404.1,192.3z"/>
<path fill="#FFFFFF" stroke="#FFFFFF" d="M404.1,194.6c-3.4,2.6-5.6,4.1-6.5,4.6c-1.3,0.6-2.7,0.9-4.2,0.9c-2.3,0-4.2-0.8-5.7-2.4
	c-1.5-1.6-2.3-3.7-2.3-6.2c0-1.6,0.4-3,1.1-4.2c1-1.6,2.7-3.2,5.2-4.7c2.5-1.5,6.6-3.2,12.4-5.3V176c0-3.3-0.5-5.6-1.6-6.9
	c-1.1-1.2-2.6-1.9-4.6-1.9c-1.5,0-2.8,0.4-3.7,1.2c-0.9,0.8-1.4,1.8-1.4,2.8l0.1,2.1c0,1.1-0.3,2-0.9,2.6c-0.6,0.6-1.3,0.9-2.3,0.9
	c-0.9,0-1.7-0.3-2.2-1c-0.6-0.6-0.9-1.5-0.9-2.6c0-2.1,1.1-4.1,3.2-5.8c2.1-1.8,5.2-2.7,9-2.7c3,0,5.4,0.5,7.3,1.5
	c1.4,0.8,2.5,1.9,3.2,3.5c0.4,1,0.7,3.2,0.7,6.4v11.4c0,3.2,0.1,5.1,0.2,5.9c0.1,0.7,0.3,1.2,0.6,1.4c0.3,0.2,0.6,0.4,1,0.4
	c0.4,0,0.7-0.1,1-0.3c0.5-0.3,1.5-1.2,3-2.7v2c-2.7,3.6-5.3,5.5-7.8,5.5c-1.2,0-2.1-0.4-2.8-1.2C404.5,198,404.1,196.6,404.1,194.6
	L404.1,194.6z M404.1,192.3v-12.6c-3.7,1.4-6.1,2.5-7.2,3.1c-1.9,1.1-3.3,2.2-4.2,3.3c-0.8,1.2-1.3,2.4-1.3,3.8
	c0,1.7,0.5,3.2,1.6,4.3c1.1,1.1,2.3,1.7,3.6,1.7C398.6,195.9,401,194.7,404.1,192.3L404.1,192.3z"/>
<path fill="#231F20" d="M428.1,171.9c3.9-4.7,7.6-7.1,11.2-7.1c1.8,0,3.4,0.5,4.7,1.4c1.3,0.9,2.4,2.4,3.1,4.5
	c0.5,1.5,0.8,3.7,0.8,6.8V192c0,2.1,0.2,3.6,0.5,4.3c0.3,0.6,0.7,1.1,1.3,1.4c0.6,0.3,1.6,0.5,3.2,0.5v1.3h-16.5v-1.3h0.7
	c1.6,0,2.7-0.2,3.3-0.7c0.6-0.5,1.1-1.2,1.3-2.1c0.1-0.4,0.1-1.5,0.1-3.4v-13.9c0-3.1-0.4-5.3-1.2-6.7c-0.8-1.4-2.1-2.1-4-2.1
	c-2.9,0-5.7,1.6-8.6,4.8V192c0,2.3,0.1,3.7,0.4,4.2c0.3,0.7,0.8,1.2,1.4,1.6c0.6,0.3,1.8,0.5,3.7,0.5v1.3h-16.5v-1.3h0.7
	c1.7,0,2.8-0.4,3.4-1.3c0.6-0.9,0.9-2.5,0.9-4.9v-12.6c0-4.1-0.1-6.5-0.3-7.4c-0.2-0.9-0.5-1.5-0.8-1.8c-0.4-0.3-0.9-0.5-1.5-0.5
	c-0.7,0-1.5,0.2-2.4,0.6l-0.5-1.3l10.1-4.1h1.6V171.9L428.1,171.9z"/>
<path fill="#FFFFFF" stroke="#FFFFFF" d="M428.1,171.9c3.9-4.7,7.6-7.1,11.2-7.1c1.8,0,3.4,0.5,4.7,1.4c1.3,0.9,2.4,2.4,3.1,4.5
	c0.5,1.5,0.8,3.7,0.8,6.8V192c0,2.1,0.2,3.6,0.5,4.3c0.3,0.6,0.7,1.1,1.3,1.4c0.6,0.3,1.6,0.5,3.2,0.5v1.3h-16.5v-1.3h0.7
	c1.6,0,2.7-0.2,3.3-0.7c0.6-0.5,1.1-1.2,1.3-2.1c0.1-0.4,0.1-1.5,0.1-3.4v-13.9c0-3.1-0.4-5.3-1.2-6.7c-0.8-1.4-2.1-2.1-4-2.1
	c-2.9,0-5.7,1.6-8.6,4.8V192c0,2.3,0.1,3.7,0.4,4.2c0.3,0.7,0.8,1.2,1.4,1.6c0.6,0.3,1.8,0.5,3.7,0.5v1.3h-16.5v-1.3h0.7
	c1.7,0,2.8-0.4,3.4-1.3c0.6-0.9,0.9-2.5,0.9-4.9v-12.6c0-4.1-0.1-6.5-0.3-7.4c-0.2-0.9-0.5-1.5-0.8-1.8c-0.4-0.3-0.9-0.5-1.5-0.5
	c-0.7,0-1.5,0.2-2.4,0.6l-0.5-1.3l10.1-4.1h1.6V171.9L428.1,171.9z"/>
<path fill="#231F20" d="M465.7,147.4v33.3l8.4-7.8c1.8-1.6,2.8-2.7,3.1-3.1c0.2-0.3,0.3-0.6,0.3-0.9c0-0.5-0.2-0.9-0.6-1.2
	c-0.4-0.3-1.1-0.5-2-0.6v-1.3h14.4v1.1c-2,0.1-3.6,0.4-4.9,0.9c-1.3,0.6-2.7,1.6-4.3,3l-8.5,7.9l8.5,11c2.4,3,3.9,4.9,4.7,5.8
	c1.2,1.1,2.2,1.9,3.1,2.2c0.6,0.2,1.7,0.4,3.2,0.4v1.3h-16.2v-1.3c0.9,0,1.6-0.2,1.9-0.4c0.3-0.3,0.5-0.6,0.5-1.1
	c0-0.6-0.5-1.5-1.5-2.7l-10.2-13.2V192c0,2.2,0.2,3.6,0.5,4.3c0.3,0.7,0.7,1.2,1.3,1.5c0.6,0.3,1.8,0.5,3.7,0.5v1.3h-17v-1.3
	c1.7,0,2.9-0.2,3.8-0.6c0.5-0.3,0.9-0.7,1.2-1.3c0.4-0.8,0.5-2.2,0.5-4.2v-30.5c0-3.9-0.1-6.2-0.3-7.1c-0.2-0.9-0.4-1.5-0.8-1.8
	c-0.4-0.3-0.9-0.5-1.5-0.5c-0.5,0-1.3,0.2-2.3,0.6l-0.6-1.3l9.9-4.1H465.7L465.7,147.4z"/>
<path fill="#FFFFFF" stroke="#FFFFFF" d="M465.7,147.4v33.3l8.4-7.8c1.8-1.6,2.8-2.7,3.1-3.1c0.2-0.3,0.3-0.6,0.3-0.9
	c0-0.5-0.2-0.9-0.6-1.2c-0.4-0.3-1.1-0.5-2-0.6v-1.3h14.4v1.1c-2,0.1-3.6,0.4-4.9,0.9c-1.3,0.6-2.7,1.6-4.3,3l-8.5,7.9l8.5,11
	c2.4,3,3.9,4.9,4.7,5.8c1.2,1.1,2.2,1.9,3.1,2.2c0.6,0.2,1.7,0.4,3.2,0.4v1.3h-16.2v-1.3c0.9,0,1.6-0.2,1.9-0.4
	c0.3-0.3,0.5-0.6,0.5-1.1c0-0.6-0.5-1.5-1.5-2.7l-10.2-13.2V192c0,2.2,0.2,3.6,0.5,4.3c0.3,0.7,0.7,1.2,1.3,1.5
	c0.6,0.3,1.8,0.5,3.7,0.5v1.3h-17v-1.3c1.7,0,2.9-0.2,3.8-0.6c0.5-0.3,0.9-0.7,1.2-1.3c0.4-0.8,0.5-2.2,0.5-4.2v-30.5
	c0-3.9-0.1-6.2-0.3-7.1c-0.2-0.9-0.4-1.5-0.8-1.8c-0.4-0.3-0.9-0.5-1.5-0.5c-0.5,0-1.3,0.2-2.3,0.6l-0.6-1.3l9.9-4.1H465.7
	L465.7,147.4z"/>
<line fill="#D31145" stroke="#C34E5C" stroke-width="3" x1="12.5" y1="150.9" x2="326.1" y2="150.9"/>
</svg>
